# xmcd
#
# Track frame offsets:
#	150
#	12895
#	25627
#	36705
#	56257
#	67040
#	82345
#	96480
#	109590
#	123952
#	136797
#	150980
#	164202
#	178157
#	193517
#	205280
#
# Disc length: 2968 seconds
#
# Revision: 1
# Processed by: cddbd v1.5.2PL0 Copyright (c) Steve Scherf et al.
# Submitted via: audiograbber 1.83.01
#
DISCID=df0b9610
DTITLE=Rob Hoeke - Margio
DYEAR=1998
DGENRE=Nederpop
TTITLE0=Margio - [1966]
TTITLE1=When People Talk - [1966]
TTITLE2=Swanee River Boogie - [1968]
TTITLE3=Ode To Lucky Luke - [1968]
TTITLE4=Deep In The Heart of Texas - [1968]
TTITLE5=Drinking On my Bed - [1967]
TTITLE6=Purple Potatoes - [1968]
TTITLE7=Rock Around the Clock - [1975]
TTITLE8=Fingerprints - [1975]
TTITLE9=Kansas City - [1979]
TTITLE10=For Little Eva - [1979]
TTITLE11=Lucky Lucinda - [1979]
TTITLE12=St. Louis Blues - [1979]
TTITLE13=Yes Sir That's My Baby - [1979]
TTITLE14=Trade Mark - [1979]
TTITLE15=Down South '79 - [1979]
EXTD=
EXTT0=
EXTT1=
EXTT2=
EXTT3=
EXTT4=
EXTT5=
EXTT6=
EXTT7=
EXTT8=
EXTT9=
EXTT10=
EXTT11=
EXTT12=
EXTT13=
EXTT14=
EXTT15=
PLAYORDER=
